<?xml version="1.0" encoding="UTF-8" standalone="no"?>
<svg viewBox="0 0 484.7113 245.34927" xmlns="http://www.w3.org/2000/svg" xmlns:xlink="http://www.w3.org/1999/xlink">
<defs>
<linearGradient id="linearGradient7102">
<stop offset="0" stop-color="#b8b8b8"/>
<stop offset=".5" stop-color="#e3e3e3"/>
<stop offset="1" stop-color="#b9b9b9"/>
</linearGradient>
<linearGradient gradientUnits="userSpaceOnUse" id="linearGradient7236" x1="125.8874" x2="569.34814" y1="286.38242" y2="130.07462">
<stop offset="0" stop-color="#867850"/>
<stop offset=".35474" stop-color="#a08872"/>
<stop offset="1" stop-color="#867850"/>
</linearGradient>
<linearGradient gradientTransform="matrix(-.96884,-.24771,.24771,-.96884,748.0485,756.69199)" gradientUnits="userSpaceOnUse" id="linearGradient7226" x1="412.43628" x2="411.63953" xlink:href="#linearGradient7102" y1="330.39026" y2="335.08582"/>
<linearGradient gradientTransform="matrix(.90747,-.42013,.42013,.90747,-96.4932,204.07798)" gradientUnits="userSpaceOnUse" id="linearGradient7229" x1="412.43628" x2="411.63953" xlink:href="#linearGradient7102" y1="330.39026" y2="335.08582"/>
<linearGradient gradientUnits="userSpaceOnUse" id="linearGradient7232" x1="412.43628" x2="411.63953" xlink:href="#linearGradient7102" y1="330.39026" y2="335.08582"/>
</defs>
<path d="m135.55727,97.77572h473.24636a3.82795,3.82795 0 0,1 3.82795,3.82795v236.85539a3.82795,3.82795 0 0,1 -3.82795,3.82795h-473.24636a3.82795,3.82795 0 0,1 -3.82795-3.82795v-236.85539a3.82795,3.82795 0 0,1 3.82795-3.82795" fill="url(#linearGradient7236)" stroke="#777" stroke-linejoin="round" stroke-width=".2" transform="translate(-129.8248,-97.67572)"/>
<path d="m149.74795,109.50504h444.86501a3.82795,3.82795 0 0,1 3.82795,3.82795v205.27644a3.82795,3.82795 0 0,1 -3.82795,3.82795h-444.86501a3.82795,3.82795 0 0,1 -3.82795-3.82795v-205.27644a3.82795,3.82795 0 0,1 3.82795-3.82795" fill="#444" stroke="#777" stroke-linejoin="round" stroke-width=".2" transform="translate(-129.8248,-97.67572)"/>
<path d="m397.65942,328.23188 30.17081,3.838-.79998,5.46177-30.01804-4.88098 .64721-4.41879z" fill="url(#linearGradient7232)" stroke="#858585" stroke-linejoin="round" stroke-width=".1" transform="translate(-129.8248,-97.67572)"/>
<path d="m402.268,334.86961 28.99141-9.19272 1.56868,5.29246-29.29096,8.18206-1.26913-4.2818z" fill="url(#linearGradient7229)" stroke="#858585" stroke-linejoin="round" stroke-width=".1" transform="translate(-129.8248,-97.67572)"/>
<path d="m444.08737,340.1865-28.27984-11.1919 2.12797-5.0934 27.87348,12.16454-1.72161,4.12076z" fill="url(#linearGradient7226)" stroke="#858585" stroke-linejoin="round" stroke-width=".1" transform="translate(-129.8248,-97.67572)"/>
<path d="m267.4006,314.13776h37.64823v11.90519h-37.64823z" fill="#493a3d" stroke="#858585" stroke-linejoin="round" stroke-width=".1" transform="matrix(.9991,.04242,-.04242,.9991,-129.8248,-97.67572)"/>
<path d="m129.9248,335.70694h484.51129v7.21805h-484.51129z" fill="#60553f" stroke="#777" stroke-linejoin="round" stroke-width=".2" transform="translate(-129.8248,-97.67572)"/>
<path d="m185.90996,231.54708c1.29644-3.94992 2.21383-7.79383 3.70605-11.74615 1.4348-3.77653 2.05259-7.88942 4.42458-11.23837 1.25076-2.64749 2.18925-5.55941 3.64033-8.1739 1.77448-2.14302 1.39872-5.57768 3.82572-7.1497 1.18426-3.76036 3.43425-6.75525 4.84267-10.36939 1.76814-3.24254 2.50837-5.62466 4.44504-8.7275 1.58633-2.48333 2.14753-5.0978 3.80463-7.52738 1.45599-3.0563 2.36618-5.82442 3.16181-9.15541 .84527-1.08343 1.19285-4.49021 1.41524-1.14336 .042,3.05921-.51172,6.22384.89339,9.0289 .67276,3.1044.88368,6.33459 2.07608,9.12358 1.48411,2.92491 2.32746,6.10672 2.93725,9.29749 .88876,2.94597 1.31504,6.06395 2.40598,8.62194 .097,3.29365 1.47418,6.38969 1.67096,9.6856 .81893,4.60851 2.36726,9.08708 3.69792,13.531 1.18943,2.71724 1.9266,5.64151 2.68904,8.501 .0612,2.97362 1.541,5.35352 2.29559,8.05017l-.002.0839" fill="none" stroke="#c8cbcb" stroke-linecap="round" stroke-linejoin="round" stroke-width="2.6" transform="translate(-129.8248,-97.67572)"/>
<path d="m194.91128,202.46589c4.34577-.13601 8.48144-1.15674 12.93994-.6789 3.31679.39762 6.14742-1.52735 9.53032-.63848 4.10548.42993 7.60764-.9976 11.61165-.70148 2.16176-.65546 4.0251-1.1591 6.07783-1.44319" fill="none" stroke="#c8cbcb" stroke-linecap="round" stroke-linejoin="round" stroke-width="2.6" transform="translate(-129.8248,-97.67572)"/>
<path d="m148.91733,119.03058c6.6543-.0592 13.2978-.50354 19.95334-.5051 2.9899,2.03263 7.07545.67965 10.3694,2.11156 5.31438,1.39568 10.45485,4.41404 13.04015,8.98203 1.6614,4.515-3.51769,6.92173-7.14941,8.49134-3.54449,2.08383-7.42701,3.59077-11.35181,4.9419-1.00053.58831-5.33209.7159-4.65152,1.46332 4.11005-.14947 8.25417.12837 12.28886.8821 4.46859.89874 6.78065,4.94131 8.83199,8.27715 2.2444,3.88254 2.66268,8.42186 2.06507,12.69867-1.23491,3.58772-2.72871,7.30164-5.85271,9.90204-3.51778,3.35719-8.44949,5.07313-13.44269,5.50972-3.32863.45805-6.73809.65739-10.07793.175-5.42435-2.44301-11.13413-4.40591-16.06328-7.67376-1.39657-.92204-2.89513-1.6761-4.40104-2.37838m16.64073-56.79445c-.23608,5.87201 1.79229,11.55001 2.6882,17.31026 .77644,3.67463 1.323,7.43065 2.19408,11.06047-.33537,3.52348.48337,7.12905-.54961,10.59259-.26233,3.81464-1.5249,7.52305-1.26848,11.37718-.73155,3.88281-1.35124,7.77277-1.76504,11.69303-.2903,1.67571-.65531,3.34566-.7623,5.04267" fill="none" stroke="#8281c6" stroke-linecap="round" stroke-linejoin="round" stroke-width="3.1"/>
<path d="m269.77365,75.94513c-2.52239-1.9936-5.55196-3.51124-8.6285-4.3567-6.26165-.97828-13.12123-3.00999-19.07855.22315-5.0985,2.15895-10.09991,4.89684-13.6062,9.30558-3.63559,3.51555-5.07004,8.48863-7.15787,12.94344-.4518,4.77883-1.29597,9.81516.70497,14.37587 .95204,3.76037 2.25696,7.45701 4.33647,10.77304 2.82358,2.86108 5.29063,6.20684 8.51582,8.66736 5.86599,4.12701 12.62028,7.10219 19.81376,7.78065 3.43764.22403 7.21232,1.54123 10.33227-.5822 4.46659-2.11034 8.90158-4.51236 12.32927-8.15853-1.38832-.26437 1.80005-.85391 1.2515-1.52133" fill="none" stroke="#bb4c4c" stroke-linecap="round" stroke-width="3.2"/>
</svg>
